<svg width="112" height="73" viewBox="0 0 112 73" fill="none" xmlns="http://www.w3.org/2000/svg">
<rect x="14.4219" y="12.7461" width="80" height="48" rx="2" fill="#CDD5DF"/>
<circle cx="91.8281" cy="14.1836" r="5.75" fill="white"/>
<path fill-rule="evenodd" clip-rule="evenodd" d="M91.8281 8.43359C88.6484 8.43359 86.0781 11.0038 86.0781 14.1836C86.0781 17.3633 88.6484 19.9336 91.8281 19.9336C95.0079 19.9336 97.5781 17.3633 97.5781 14.1836C97.5781 11.0038 95.0079 8.43359 91.8281 8.43359ZM94.7031 16.2478L93.8924 17.0586L91.8281 14.9943L89.7639 17.0586L88.9531 16.2478L91.0174 14.1836L88.9531 12.1193L89.7639 11.3086L91.8281 13.3728L93.8924 11.3086L94.7031 12.1193L92.6389 14.1836L94.7031 16.2478Z" fill="#01AA7B"/>
<rect x="1" y="1.58984" width="110" height="70" rx="3" stroke="#CDCDCD" stroke-width="2" stroke-dasharray="4 4"/>
</svg>
