<svg width="41" height="25" viewBox="0 0 41 25" fill="none" xmlns="http://www.w3.org/2000/svg">
<path d="M2.91667 16.6732H3.73333L8.76458 11.642L7.94792 10.8253L2.91667 15.8566V16.6732ZM11.2583 10.7962L8.77917 8.34616L10.4271 6.69824L12.8917 9.16283L11.2583 10.7962ZM1.75 17.8399V15.3607L7.93333 9.17741L10.4125 11.6566L4.22917 17.8399H1.75ZM8.35625 11.2337L7.94792 10.8253L8.76458 11.642L8.35625 11.2337Z" fill="#03A87D"/>
<path d="M23.952 17.5898H19.164V9.02184H23.952V9.96984H20.244V12.6458H23.736V13.5818H20.244V16.6418H23.952V17.5898ZM28.148 17.7098C27.348 17.7098 26.708 17.4338 26.228 16.8818C25.748 16.3218 25.508 15.4898 25.508 14.3858C25.508 13.2818 25.748 12.4498 26.228 11.8898C26.716 11.3218 27.36 11.0378 28.16 11.0378C28.496 11.0378 28.788 11.0818 29.036 11.1698C29.284 11.2498 29.5 11.3618 29.684 11.5058C29.868 11.6498 30.024 11.8098 30.152 11.9858H30.224C30.216 11.8818 30.2 11.7298 30.176 11.5298C30.16 11.3218 30.152 11.1578 30.152 11.0378V8.46984H31.208V17.5898H30.356L30.2 16.7258H30.152C30.024 16.9098 29.868 17.0778 29.684 17.2298C29.5 17.3738 29.28 17.4898 29.024 17.5778C28.776 17.6658 28.484 17.7098 28.148 17.7098ZM28.316 16.8338C28.996 16.8338 29.472 16.6498 29.744 16.2818C30.024 15.9058 30.164 15.3418 30.164 14.5898V14.3978C30.164 13.5978 30.032 12.9858 29.768 12.5618C29.504 12.1298 29.016 11.9138 28.304 11.9138C27.736 11.9138 27.308 12.1418 27.02 12.5978C26.74 13.0458 26.6 13.6498 26.6 14.4098C26.6 15.1778 26.74 15.7738 27.02 16.1978C27.308 16.6218 27.74 16.8338 28.316 16.8338ZM34.4868 11.1578V17.5898H33.4308V11.1578H34.4868ZM33.9708 8.74584C34.1308 8.74584 34.2708 8.80184 34.3908 8.91384C34.5188 9.01784 34.5828 9.18584 34.5828 9.41784C34.5828 9.64184 34.5188 9.80984 34.3908 9.92184C34.2708 10.0338 34.1308 10.0898 33.9708 10.0898C33.7948 10.0898 33.6468 10.0338 33.5268 9.92184C33.4068 9.80984 33.3468 9.64184 33.3468 9.41784C33.3468 9.18584 33.4068 9.01784 33.5268 8.91384C33.6468 8.80184 33.7948 8.74584 33.9708 8.74584ZM38.8525 16.8458C39.0125 16.8458 39.1765 16.8338 39.3445 16.8098C39.5125 16.7778 39.6485 16.7458 39.7525 16.7138V17.5178C39.6405 17.5738 39.4805 17.6178 39.2725 17.6498C39.0645 17.6898 38.8645 17.7098 38.6725 17.7098C38.3365 17.7098 38.0245 17.6538 37.7365 17.5418C37.4565 17.4218 37.2285 17.2178 37.0525 16.9298C36.8765 16.6418 36.7885 16.2378 36.7885 15.7178V11.9738H35.8765V11.4698L36.8005 11.0498L37.2205 9.68184H37.8445V11.1578H39.7045V11.9738H37.8445V15.6938C37.8445 16.0858 37.9365 16.3778 38.1205 16.5698C38.3125 16.7538 38.5565 16.8458 38.8525 16.8458Z" fill="#03A87D"/>
</svg>
